<svg id="Capa_1" enable-background="new 0 0 512 512" height="512" viewBox="0 0 512 512" width="512" xmlns="http://www.w3.org/2000/svg"><g><path d="m121 0h270v512h-270z" fill="#e1e6f0"/><path d="m256 0h135v512h-135z" fill="#cfd7e6"/><path d="m151 30h210v452h-210z" fill="#405680"/><path d="m256 30h105v452h-105z" fill="#293e66"/><g><path d="m241 452h30v30h-30z" fill="#293e66"/></g><path d="m256 452h15v30h-15z" fill="#142033"/><g><path d="m241 30h30v30h-30z" fill="#293e66"/><path d="m256 30h15v30h-15z" fill="#142033"/></g><g><g fill="#a0e65c"><path d="m301 271v30h-90v-30h-30v60h150v-60z"/><path d="m307.211 226-21.211-21.211-15 15v-68.789h-30v68.789l-15-15-21.211 21.211 51.211 51.211z"/></g></g><g fill="#79cc52"><path d="m331 271h-30v30h-45v30h75z"/><path d="m286 204.789-15 15v-68.789h-15v126.211l51.211-51.211z"/></g></g></svg>